<?xml version="1.0" standalone="no"?>
<!DOCTYPE svg PUBLIC "-//W3C//DTD SVG 20010904//EN"
 "http://www.w3.org/TR/2001/REC-SVG-20010904/DTD/svg10.dtd">
<svg version="1.0" xmlns="http://www.w3.org/2000/svg"
 width="128.000000pt" height="128.000000pt" viewBox="0 0 128.000000 128.000000"
 preserveAspectRatio="xMidYMid meet">
<metadata>
Created by potrace 1.14, written by Peter Selinger 2001-2017
</metadata>
<g transform="translate(0.000000,128.000000) scale(0.100000,-0.100000)"
fill="#000000" stroke="none">
<path d="M585 1262 c-27 -7 -66 -26 -86 -42 -20 -16 -50 -32 -65 -36 -34 -8
-146 -71 -156 -88 -4 -6 -8 -8 -8 -4 0 15 -113 -109 -138 -152 -14 -25 -29
-47 -32 -50 -9 -8 -39 -101 -50 -155 -53 -252 67 -516 292 -643 135 -77 296
-97 466 -58 13 3 56 21 95 41 438 216 457 823 34 1066 -40 23 -76 47 -82 53
-19 23 -70 53 -110 66 -52 17 -98 18 -160 2z"/>
</g>
</svg>
